<svg width="575" height="441" viewBox="0 0 575 441" fill="none" xmlns="http://www.w3.org/2000/svg">
<circle cx="288" cy="215" r="191.5" stroke="#206284" stroke-width="7"/>
<circle cx="288" cy="215" r="170" fill="#206284"/>
<g filter="url(#filter0_d)">
<path d="M9.8 208.88C9.8 194.32 12.04 181.44 16.52 170.24C21.1867 159.04 27.44 149.707 35.28 142.24C43.3067 134.587 52.64 128.8 63.28 124.88C74.1067 120.96 85.7733 119 98.28 119C110.787 119 122.36 120.96 133 124.88C143.827 128.8 153.253 134.587 161.28 142.24C169.307 149.707 175.56 159.04 180.04 170.24C184.707 181.44 187.04 194.32 187.04 208.88C187.04 227.173 183.68 242.76 176.96 255.64C170.24 268.333 161.093 278.32 149.52 285.6C152.32 286.907 155.587 288.307 159.32 289.8C163.24 291.293 167.253 292.787 171.36 294.28C175.653 295.773 180.04 297.173 184.52 298.48C189 299.973 193.2 301.28 197.12 302.4C197.307 303.52 197.4 304.453 197.4 305.2C197.4 306.133 197.4 306.973 197.4 307.72C197.4 318.36 194.6 326.107 189 330.96C183.587 335.813 176.4 338.24 167.44 338.24C158.853 338.24 149.987 335.813 140.84 330.96C131.693 326.293 122.36 319.48 112.84 310.52L100.52 299.04H98.28C85.5867 299.04 73.8267 297.08 63 293.16C52.1733 289.053 42.84 283.173 35 275.52C27.16 267.867 21 258.44 16.52 247.24C12.04 236.04 9.8 223.253 9.8 208.88ZM60.2 208.88C60.2 225.867 63.6533 238.56 70.56 246.96C77.4667 255.36 86.7067 259.56 98.28 259.56C110.04 259.56 119.373 255.36 126.28 246.96C133.187 238.56 136.64 225.867 136.64 208.88C136.64 192.08 133.187 179.48 126.28 171.08C119.56 162.68 110.32 158.48 98.56 158.48C86.9867 158.48 77.6533 162.68 70.56 171.08C63.6533 179.293 60.2 191.893 60.2 208.88ZM211.982 159.88C213.849 159.32 216.742 158.76 220.662 158.2C224.769 157.64 228.969 157.36 233.262 157.36C237.369 157.36 241.009 157.64 244.182 158.2C247.542 158.76 250.342 159.88 252.582 161.56C254.822 163.24 256.502 165.573 257.622 168.56C258.929 171.36 259.582 175.093 259.582 179.76V239.96C259.582 247.613 261.449 253.12 265.182 256.48C268.915 259.653 274.329 261.24 281.422 261.24C285.715 261.24 289.169 260.867 291.782 260.12C294.582 259.373 296.729 258.627 298.222 257.88V159.88C300.089 159.32 302.982 158.76 306.902 158.2C311.009 157.64 315.209 157.36 319.502 157.36C323.609 157.36 327.249 157.64 330.422 158.2C333.782 158.76 336.582 159.88 338.822 161.56C341.062 163.24 342.742 165.573 343.862 168.56C345.169 171.36 345.822 175.093 345.822 179.76V264.88C345.822 274.213 341.902 281.213 334.062 285.88C327.529 289.987 319.689 293.067 310.542 295.12C301.582 297.36 291.782 298.48 281.142 298.48C271.062 298.48 261.729 297.36 253.142 295.12C244.742 292.88 237.462 289.427 231.302 284.76C225.142 280.093 220.382 274.12 217.022 266.84C213.662 259.373 211.982 250.413 211.982 239.96V159.88ZM373.831 120.12C373.831 113.027 376.164 107.053 380.831 102.2C385.684 97.3467 392.031 94.92 399.871 94.92C407.711 94.92 413.964 97.3467 418.631 102.2C423.484 107.053 425.911 113.027 425.911 120.12C425.911 127.213 423.484 133.187 418.631 138.04C413.964 142.893 407.711 145.32 399.871 145.32C392.031 145.32 385.684 142.893 380.831 138.04C376.164 133.187 373.831 127.213 373.831 120.12ZM423.671 293.72C421.617 294.093 418.537 294.56 414.431 295.12C410.511 295.867 406.497 296.24 402.391 296.24C398.284 296.24 394.551 295.96 391.191 295.4C388.017 294.84 385.311 293.72 383.071 292.04C380.831 290.36 379.057 288.12 377.751 285.32C376.631 282.333 376.071 278.507 376.071 273.84V159.88C378.124 159.507 381.111 159.04 385.031 158.48C389.137 157.733 393.244 157.36 397.351 157.36C401.457 157.36 405.097 157.64 408.271 158.2C411.631 158.76 414.431 159.88 416.671 161.56C418.911 163.24 420.591 165.573 421.711 168.56C423.017 171.36 423.671 175.093 423.671 179.76V293.72ZM458.734 294C455.747 291.387 453.321 288.307 451.454 284.76C449.774 281.213 448.934 277.2 448.934 272.72C448.934 268.987 449.774 265.347 451.454 261.8C453.321 258.067 455.561 254.613 458.174 251.44L506.334 194.88H454.814C453.694 192.827 452.574 190.213 451.454 187.04C450.521 183.867 450.054 180.413 450.054 176.68C450.054 170.147 451.454 165.48 454.254 162.68C457.241 159.693 461.161 158.2 466.014 158.2H554.214C557.201 160.813 559.534 163.893 561.214 167.44C563.081 170.987 564.014 175 564.014 179.48C564.014 183.213 563.081 186.947 561.214 190.68C559.534 194.227 557.387 197.587 554.774 200.76L507.734 257.32H562.614C563.734 259.373 564.761 261.987 565.694 265.16C566.814 268.333 567.374 271.787 567.374 275.52C567.374 282.053 565.881 286.813 562.894 289.8C560.094 292.6 556.267 294 551.414 294H458.734Z" fill="white"/>
</g>
<defs>
<filter id="filter0_d" x="5.8" y="94.92" width="565.574" height="251.32" filterUnits="userSpaceOnUse" color-interpolation-filters="sRGB">
<feFlood flood-opacity="0" result="BackgroundImageFix"/>
<feColorMatrix in="SourceAlpha" type="matrix" values="0 0 0 0 0 0 0 0 0 0 0 0 0 0 0 0 0 0 127 0"/>
<feOffset dy="4"/>
<feGaussianBlur stdDeviation="2"/>
<feColorMatrix type="matrix" values="0 0 0 0 0 0 0 0 0 0 0 0 0 0 0 0 0 0 0.25 0"/>
<feBlend mode="normal" in2="BackgroundImageFix" result="effect1_dropShadow"/>
<feBlend mode="normal" in="SourceGraphic" in2="effect1_dropShadow" result="shape"/>
</filter>
</defs>
</svg>
