<svg width="100" height="100" viewBox="0 0 100 100" fill="none" xmlns="http://www.w3.org/2000/svg">
<path d="M19.031 3.3047C18.6169 3.3047 18.2185 3.46486 17.9216 3.75782C17.6286 4.05079 17.4606 4.44532 17.4606 4.86332V11.1172V11.1133C17.4606 11.5313 17.6247 11.9336 17.9177 12.2266C18.2145 12.5196 18.6169 12.6876 19.031 12.6836H22.156V36.1216C22.156 38.7505 23.7732 40.9458 25.8474 42.7778C27.9216 44.6098 30.5622 46.1645 33.1716 47.4731C36.531 49.1528 37.906 49.4887 39.8591 50.1723C37.906 50.852 36.531 51.2035 33.1716 52.8871C30.5622 54.1918 27.9216 55.7465 25.8474 57.5824C23.7732 59.4144 22.156 61.6176 22.156 64.2465V87.6845L19.031 87.6767C18.613 87.6767 18.2146 87.8408 17.9177 88.1377C17.6247 88.4306 17.4567 88.833 17.4606 89.251V95.4893C17.4606 95.9033 17.6247 96.3057 17.9177 96.5987C18.2145 96.8956 18.6169 97.0596 19.031 97.0557H81.523C81.9409 97.0596 82.3394 96.8916 82.6324 96.5987C82.9293 96.3057 83.0933 95.9034 83.0894 95.4893V89.251C83.0933 88.833 82.9292 88.4307 82.6363 88.1377C82.3394 87.8408 81.941 87.6767 81.523 87.6767H78.398V64.2387C78.398 61.6098 76.7691 59.4067 74.6949 57.5746C72.6207 55.7426 69.9918 54.1879 67.3785 52.8793C64.0152 51.1996 62.6441 50.8481 60.691 50.1645C62.6441 49.4809 64.0191 49.1489 67.3785 47.4653C69.9879 46.1606 72.6207 44.6059 74.6949 42.77C76.7691 40.938 78.398 38.7427 78.398 36.1138V12.6758H81.523V12.6836C81.9409 12.6836 82.3394 12.5196 82.6324 12.2266C82.9293 11.9297 83.0933 11.5313 83.0894 11.1133V4.85942V4.86332C83.0894 4.00004 82.3863 3.30082 81.523 3.30472L19.031 3.3047ZM25.2693 12.6836H75.2693V36.1216C75.2693 37.3989 74.3669 38.9107 72.6287 40.4458C70.8943 41.981 68.4529 43.4458 65.9842 44.6802C61.0506 47.149 56.0662 48.6841 56.0662 48.6841H56.0701C55.4138 48.8833 54.9646 49.4888 54.9646 50.1763C54.9646 50.8638 55.4138 51.4693 56.0701 51.6685C56.0701 51.6685 61.0545 53.2154 65.9881 55.6802C68.4569 56.9146 70.8943 58.3755 72.6326 59.9146C74.367 61.4498 75.2732 62.9615 75.2732 64.2388V87.6768H25.2692V64.2388C25.2692 62.9615 26.1872 61.4497 27.9254 59.9146C29.6598 58.3794 32.1012 56.9146 34.5699 55.6802C39.5035 53.2114 44.4879 51.6685 44.4879 51.6685C45.1441 51.4693 45.5895 50.8638 45.5895 50.1763C45.5895 49.4888 45.1442 48.8833 44.4879 48.6841C44.4879 48.6841 39.5035 47.1489 34.5699 44.6802C32.1011 43.4458 29.6597 41.981 27.9254 40.4458C26.1871 38.9106 25.2692 37.3989 25.2692 36.1216L25.2693 12.6836ZM41.0973 21.5742C39.3785 21.539 37.8278 21.6953 36.4801 21.9336C32.8824 22.5742 30.7262 23.8359 30.7262 23.8359C30.2574 24.121 29.9684 24.6249 29.9645 25.1757V31.4296C29.9645 33.703 31.5661 35.4101 33.4684 36.9648C35.3707 38.5195 37.7848 39.9336 40.1832 41.1718C44.152 43.2226 47.4644 44.5116 48.7066 44.9882V57.4532L28.7536 82.0082V82.0043C28.3746 82.473 28.2965 83.1176 28.5582 83.6605C28.8161 84.2034 29.3629 84.5511 29.9644 84.5511H70.5894C71.191 84.5511 71.7379 84.2034 71.9996 83.6605C72.2575 83.1175 72.1793 82.473 71.8004 82.0043L51.8314 57.4343V44.9933C53.0619 44.5245 56.3861 43.2277 60.3666 41.173C62.765 39.9347 65.1791 38.5207 67.0814 36.966C68.9837 35.4113 70.5892 33.7043 70.5892 31.4308V25.1769C70.5853 24.6144 70.2845 24.0949 69.7924 23.8175C69.3041 23.544 68.7064 23.5519 68.222 23.837C68.222 23.837 61.2376 28.1768 50.89 23.7472C47.2845 22.2042 43.9603 21.63 41.1009 21.5753L41.0973 21.5742Z" fill="#FFD600"/>
</svg>
